<svg width="216" height="36" viewBox="0 0 216 36" fill="none" xmlns="http://www.w3.org/2000/svg">
<path d="M14.4467 14.3606L2.28766 31.4217C1.54113 32.4696 2.3342 33.8818 3.67148 33.8818H27.9915C29.3288 33.8818 30.1239 32.4656 29.3754 31.4217L17.2163 14.3606C17.0558 14.1446 16.8469 13.9692 16.6065 13.8484C16.366 13.7275 16.1006 13.6646 15.8315 13.6646C15.5624 13.6646 15.297 13.7275 15.0566 13.8484C14.8161 13.9692 14.6073 14.1446 14.4467 14.3606Z" fill="#006DAF"/>
<path d="M36.3531 2.77419L15.9903 31.1263C15.1487 32.2977 16.0369 33.8839 17.534 33.8839H58.2596C59.7567 33.8839 60.6428 32.2977 59.8032 31.1263L39.4344 2.77419C39.2551 2.53391 39.0222 2.3388 38.7542 2.20439C38.4862 2.06999 38.1905 2 37.8907 2C37.5909 2 37.2952 2.06999 37.0273 2.20439C36.7593 2.3388 36.5264 2.53391 36.3471 2.77419" fill="#50C5F2"/>
<path d="M73.8923 14.3688C73.8893 14.2225 73.916 14.0771 73.971 13.9414C74.026 13.8058 74.108 13.6827 74.212 13.5798C74.3287 13.4697 74.4664 13.3844 74.617 13.3291C74.7676 13.2738 74.9278 13.2497 75.088 13.2581C75.249 13.2505 75.41 13.275 75.5614 13.3302C75.7129 13.3854 75.8518 13.4703 75.9701 13.5798C76.0764 13.6814 76.1604 13.8041 76.2168 13.9399C76.2732 14.0757 76.3008 14.2218 76.2978 14.3688C76.3009 14.5147 76.2733 14.6596 76.2169 14.7941C76.1604 14.9286 76.0763 15.0498 75.9701 15.1497C75.8513 15.2582 75.7121 15.3419 75.5607 15.3961C75.4093 15.4502 75.2486 15.4738 75.088 15.4653C74.9283 15.4738 74.7686 15.4502 74.6181 15.396C74.4677 15.3418 74.3296 15.2581 74.212 15.1497C74.108 15.0485 74.0259 14.9269 73.9709 14.7925C73.916 14.6582 73.8892 14.5139 73.8923 14.3688ZM75.9499 33.6047H74.1978V18.6781H75.9499V33.6047Z" fill="#1A3F70"/>
<path d="M87.073 33.6066V13.5189H93.3447C95.6187 13.5189 97.3444 13.9627 98.5219 14.8501C99.6994 15.7376 100.288 17.0473 100.288 18.7791C100.307 19.7588 99.9898 20.7154 99.3898 21.4901C98.7604 22.2808 97.9018 22.8574 96.9317 23.1409C98.0988 23.3527 99.1567 23.9617 99.9259 24.8646C100.668 25.7217 101.07 26.8206 101.057 27.954C101.057 29.7262 100.45 31.1114 99.2361 32.1095C98.0222 33.1075 96.3362 33.6066 94.1782 33.6066H87.073ZM88.8675 22.5279H93.7696C95.2667 22.4996 96.4273 22.1658 97.2514 21.5265C98.0755 20.8872 98.4855 19.9545 98.4814 18.7285C98.4814 17.4377 98.0559 16.4855 97.2048 15.8718C96.3538 15.2581 95.0684 14.9526 93.3487 14.9553H88.8675V22.5279ZM88.8675 23.9623V32.1702H94.2612C95.7988 32.1702 97.0167 31.8006 97.915 31.0615C98.8132 30.3224 99.2637 29.2966 99.2664 27.9843C99.2664 26.7448 98.8355 25.7649 97.9736 25.0447C97.1118 24.3245 95.9228 23.9637 94.4068 23.9623H88.8675Z" fill="#1A3F70"/>
<path d="M137.892 33.6045H136.083V23.9765H123.945V33.6045H122.152V13.5209H123.945V22.5421H136.083V13.5209H137.892V33.6045Z" fill="#1A3F70"/>
<path d="M163.897 13.5189V27.2418C163.917 28.4845 163.589 29.7078 162.951 30.7742C162.318 31.7846 161.404 32.5878 160.32 33.0846C159.096 33.6428 157.763 33.9193 156.418 33.8939C154.18 33.8939 152.388 33.3166 151.042 32.1621C149.696 31.0075 148.998 29.4093 148.948 27.3672V13.5189H150.727V27.1083C150.727 28.7996 151.238 30.1126 152.26 31.0473C153.283 31.982 154.668 32.4487 156.418 32.4473C158.171 32.4473 159.554 31.9786 160.567 31.0413C161.58 30.1039 162.089 28.7976 162.093 27.1224V13.5189H163.897Z" fill="#1A3F70"/>
<path d="M174.875 33.6066V13.5189H181.147C183.423 13.5189 185.15 13.9627 186.326 14.8501C187.502 15.7376 188.09 17.0473 188.09 18.7791C188.109 19.7585 187.793 20.7152 187.194 21.4901C186.564 22.2808 185.706 22.8574 184.736 23.1409C185.903 23.3524 186.961 23.9615 187.73 24.8646C188.473 25.721 188.876 26.8202 188.863 27.954C188.863 29.7262 188.256 31.1114 187.042 32.1095C185.828 33.1075 184.142 33.6066 181.984 33.6066H174.875ZM176.671 22.5279H181.573C183.071 22.4996 184.23 22.1658 185.053 21.5265C185.876 20.8872 186.287 19.9545 186.285 18.7285C186.285 17.4377 185.86 16.4855 185.009 15.8718C184.158 15.2581 182.872 14.9526 181.151 14.9553H176.671V22.5279ZM176.671 23.9623V32.1702H182.053C183.59 32.1702 184.808 31.8006 185.707 31.0615C186.605 30.3224 187.055 29.2966 187.058 27.9843C187.058 26.7448 186.628 25.7649 185.767 25.0447C184.907 24.3245 183.717 23.9637 182.199 23.9623H176.671Z" fill="#1A3F70"/>
<path d="M211.182 28.6581C211.2 28.1526 211.097 27.6501 210.881 27.1926C210.665 26.7351 210.343 26.3358 209.942 26.028C209.116 25.3793 207.604 24.7622 205.404 24.1769C203.204 23.5915 201.6 22.9549 200.591 22.267C199.15 21.2919 198.43 20.0106 198.43 18.4231C198.43 16.8882 199.099 15.6399 200.437 14.6783C201.775 13.7166 203.485 13.2358 205.566 13.2358C206.869 13.2132 208.161 13.477 209.351 14.0086C210.399 14.468 211.297 15.2133 211.941 16.1592C212.55 17.0689 212.87 18.1415 212.859 19.2364H211.05C211.05 17.8606 210.555 16.756 209.563 15.9225C208.572 15.089 207.24 14.6715 205.566 14.6702C203.947 14.6702 202.654 15.0141 201.685 15.702C200.717 16.3898 200.235 17.2847 200.241 18.3867C200.235 18.8782 200.35 19.3637 200.576 19.8002C200.802 20.2367 201.133 20.6108 201.538 20.8893C202.404 21.5326 203.79 22.1011 205.697 22.5948C207.604 23.0884 209.048 23.5989 210.029 24.1263C210.914 24.5689 211.677 25.2202 212.254 26.024C212.761 26.7976 213.021 27.7071 212.999 28.6318C212.999 30.2125 212.33 31.4817 210.994 32.4393C209.657 33.3969 207.894 33.8751 205.705 33.8737C204.295 33.89 202.895 33.6323 201.582 33.1151C200.333 32.6093 199.386 31.9012 198.74 30.9908C198.091 30.0766 197.751 28.9796 197.769 27.859H199.563C199.542 28.5131 199.684 29.1622 199.977 29.7475C200.27 30.3329 200.704 30.8359 201.24 31.2113C202.358 32.0313 203.847 32.4407 205.705 32.4393C207.359 32.4393 208.686 32.094 209.687 31.4035C210.688 30.7129 211.189 29.7978 211.19 28.6581" fill="#1A3F70"/>
</svg>
